<svg width="41" height="40" viewBox="0 0 41 40" fill="none" xmlns="http://www.w3.org/2000/svg">
<path d="M31.2381 40H11.7143V14L25.381 0L27.8214 2.5C28.0492 2.73333 28.2366 3.05 28.3837 3.45C28.5308 3.85 28.6037 4.23333 28.6024 4.6V5.3L26.4548 14H37.0952C38.1365 14 39.0476 14.4 39.8286 15.2C40.6095 16 41 16.9333 41 18V22C41 22.2333 40.9759 22.4833 40.9278 22.75C40.8796 23.0167 40.8061 23.2667 40.7071 23.5L34.85 37.6C34.5571 38.2667 34.069 38.8333 33.3857 39.3C32.7024 39.7667 31.9865 40 31.2381 40ZM7.80952 14V40H0V14H7.80952Z" fill="black"/>
</svg>
