<svg width="70" height="70" viewBox="0 0 70 70" fill="none" xmlns="http://www.w3.org/2000/svg">
<circle cx="35" cy="35" r="35" fill="#D9D9D9"/>
<path fill-rule="evenodd" clip-rule="evenodd" d="M34.9998 18.9712C29.4033 18.9712 24.8666 23.6271 24.8666 29.3704C24.8666 35.1137 29.4033 39.7695 34.9998 39.7695C40.5962 39.7695 45.133 35.1137 45.133 29.3704C45.133 23.6271 40.5962 18.9712 34.9998 18.9712ZM21.9714 29.3704C21.9714 21.9861 27.8044 16 34.9998 16C42.1951 16 48.0282 21.9861 48.0282 29.3704C48.0282 36.7546 42.1951 42.7407 34.9998 42.7407C27.8044 42.7407 21.9714 36.7546 21.9714 29.3704Z" fill="#585858"/>
<path fill-rule="evenodd" clip-rule="evenodd" d="M34.9998 42.7407C31.6961 42.7407 28.4508 43.6315 25.5898 45.3268C22.7288 47.0221 20.3531 49.4605 18.7016 52.3968C18.3019 53.1074 17.4166 53.351 16.7242 52.9408C16.0317 52.5306 15.7944 51.6221 16.1941 50.9115C18.0998 47.5234 20.841 44.7099 24.1421 42.7537C27.4433 40.7976 31.1878 39.7695 34.9998 39.7695C38.8117 39.7695 42.5567 40.7976 45.8579 42.7537C49.159 44.7099 51.9002 47.5234 53.8059 50.9115C54.2056 51.6221 53.9683 52.5306 53.2758 52.9408C52.5834 53.351 51.6981 53.1074 51.2984 52.3968C49.6469 49.4605 47.2712 47.0221 44.4102 45.3268C41.5492 43.6315 38.3034 42.7407 34.9998 42.7407Z" fill="#585858"/>
</svg>
