<svg width="24" height="24" viewBox="0 0 24 24" fill="none" xmlns="http://www.w3.org/2000/svg">
<path d="M8.4 24C8.08174 24 7.77652 23.8736 7.55147 23.6485C7.32643 23.4235 7.2 23.1183 7.2 22.8V19.2H2.4C1.76348 19.2 1.15303 18.9471 0.702944 18.4971C0.252856 18.047 0 17.4365 0 16.8V2.4C0 1.76348 0.252856 1.15303 0.702944 0.702944C1.15303 0.252856 1.76348 0 2.4 0H21.6C22.2365 0 22.847 0.252856 23.2971 0.702944C23.7471 1.15303 24 1.76348 24 2.4V16.8C24 17.4365 23.7471 18.047 23.2971 18.4971C22.847 18.9471 22.2365 19.2 21.6 19.2H14.28L9.84 23.652C9.6 23.88 9.3 24 9 24H8.4ZM9.6 16.8V20.496L13.296 16.8H21.6V2.4H2.4V16.8H9.6Z" fill="black"/>
</svg>
