<svg width="28" height="25" viewBox="0 0 28 25" fill="none" xmlns="http://www.w3.org/2000/svg">
<path d="M27.5 11.25C27.5 10.587 27.2366 9.95107 26.7678 9.48223C26.2989 9.01339 25.663 8.75 25 8.75H17.1L18.3 3.0375C18.325 2.9125 18.3375 2.775 18.3375 2.6375C18.3375 2.125 18.125 1.65 17.7875 1.3125L16.4625 0L8.2375 8.225C7.775 8.6875 7.5 9.3125 7.5 10V22.5C7.5 23.163 7.76339 23.7989 8.23223 24.2678C8.70107 24.7366 9.33696 25 10 25H21.25C22.2875 25 23.175 24.375 23.55 23.475L27.325 14.6625C27.4375 14.375 27.5 14.075 27.5 13.75V11.25ZM0 25H5V10H0V25Z" fill="black"/>
</svg>
