<svg width="19" height="19" viewBox="0 0 19 19" fill="none" xmlns="http://www.w3.org/2000/svg">
<path d="M18.25 9.5C18.25 4.68693 14.3131 0.75 9.5 0.75C4.68693 0.75 0.75 4.68693 0.75 9.5C0.75 14.3131 4.68693 18.25 9.5 18.25C14.3131 18.25 18.25 14.3131 18.25 9.5ZM14.8195 13.2759L5.70866 4.1651C6.73495 3.38003 8.04093 2.95 9.5 2.95C13.1019 2.95 16.05 5.89807 16.05 9.5C16.05 10.8639 15.5558 12.1672 14.8195 13.2759ZM2.95 9.5C2.95 8.04093 3.38003 6.73495 4.1651 5.70866L13.2913 14.8349C12.2651 15.62 10.9591 16.05 9.5 16.05C5.89807 16.05 2.95 13.1019 2.95 9.5Z" fill="#FF6161" stroke="#FF6161" stroke-width="0.5"/>
</svg>
