<svg width="21" height="12" viewBox="0 0 21 12" fill="none" xmlns="http://www.w3.org/2000/svg">
<path d="M0.555303 1.80544C0.519408 1.69556 0.5 1.57821 0.5 1.45634C0.5 0.835941 1.00293 0.333008 1.62333 0.333008C2.13973 0.333008 2.57474 0.681452 2.70608 1.15605C5.04914 9.00362 16.1655 9.00537 18.5125 1.1613C18.6421 0.684023 19.0784 0.333008 19.5967 0.333008C20.2171 0.333008 20.72 0.835941 20.72 1.45634C20.72 1.57632 20.7012 1.69191 20.6664 1.80031C20.2161 3.30781 19.5115 4.58773 18.6291 5.64008L20.0621 7.07299C20.5007 7.51168 20.5007 8.22293 20.0621 8.66162C19.6234 9.10031 18.9121 9.10031 18.4734 8.66162L17.0003 7.18854C16.1981 7.79484 15.3181 8.26992 14.394 8.6138L14.796 10.114C14.9566 10.7132 14.6009 11.3292 14.0017 11.4898C13.4024 11.6504 12.7865 11.2947 12.6259 10.6955L12.2176 9.17165C11.1532 9.32906 10.0668 9.32905 9.00243 9.17163L8.59411 10.6955C8.43354 11.2947 7.81758 11.6504 7.21832 11.4898C6.61906 11.3292 6.26343 10.7132 6.424 10.114L6.82599 8.61375C5.90201 8.26989 5.02209 7.79484 4.21988 7.1886L2.74686 8.66162C2.30817 9.10031 1.59691 9.10031 1.15822 8.66162C0.719534 8.22293 0.719534 7.51168 1.15822 7.07299L2.59106 5.64016C1.70971 4.58899 1.0056 3.31075 0.555303 1.80544Z" fill="#505050"/>
</svg>
