<svg width="19" height="19" viewBox="0 0 19 19" fill="none" xmlns="http://www.w3.org/2000/svg">
<path fill-rule="evenodd" clip-rule="evenodd" d="M13.7243 1.03012C12.9432 0.249074 11.6769 0.249074 10.8958 1.03012L0.582124 11.3438C0.207052 11.7189 -0.00366211 12.2276 -0.00366211 12.758V17.9907C-0.00366211 18.5485 0.448565 19.0007 1.00634 19.0007L17 19.0001C17.5523 19.0001 18 18.5524 18 18.0001C18 17.4478 17.5523 17.0001 17 17.0001H9.068L17.9669 8.10119C18.7479 7.32014 18.7479 6.05381 17.9669 5.27276L13.7243 1.03012ZM6.23957 17.0001L16.5527 6.68698L12.31 2.44434L1.99634 12.758V17.0007C3.41074 17.0007 4.8252 17.0001 6.23957 17.0001Z" fill="#505050"/>
</svg>
