<svg width="20" height="19" viewBox="0 0 20 19" fill="none" xmlns="http://www.w3.org/2000/svg">
<path fill-rule="evenodd" clip-rule="evenodd" d="M13.5354 0.807466L19.1922 6.46432C19.9733 7.24537 19.9733 8.5117 19.1922 9.29275L15.6696 12.8154C15.6654 12.8198 15.6611 12.8241 15.6568 12.8284C15.6526 12.8327 15.6482 12.8369 15.6439 12.8411L11.4851 16.9999H17.9999C18.5522 16.9999 18.9999 17.4476 18.9999 17.9999C18.9999 18.5522 18.5522 18.9999 17.9999 18.9999H6.89327C6.49545 18.9999 6.11392 18.8418 5.83261 18.5605L0.807467 13.5354C0.0264174 12.7543 0.0264174 11.488 0.807467 10.707L10.707 0.807466C11.488 0.0264171 12.7543 0.0264181 13.5354 0.807466ZM13.5354 12.1212L8.65669 16.9999H7.10038L2.22168 12.1212L7.87856 6.46429L13.5354 12.1212ZM14.9496 10.7069L9.29277 5.05008L12.1212 2.22168L17.778 7.87853L14.9496 10.7069Z" fill="#FF6161"/>
</svg>
