<svg width="21" height="17" viewBox="0 0 21 17" fill="none" xmlns="http://www.w3.org/2000/svg">
<path fill-rule="evenodd" clip-rule="evenodd" d="M10.4969 16.2133C15.9932 16.2133 20.5983 13.6229 20.5983 10.0403C20.5983 6.45763 15.9932 3.86719 10.4969 3.86719C5.00061 3.86719 0.395508 6.45763 0.395508 10.0403C0.395508 13.6229 5.00061 16.2133 10.4969 16.2133ZM10.4969 6.11194C14.919 6.11194 18.3535 8.04467 18.3535 10.0403C18.3535 12.0358 14.919 13.9686 10.4969 13.9686C6.07473 13.9686 2.64026 12.0358 2.64026 10.0403C2.64026 8.04467 6.07473 6.11194 10.4969 6.11194Z" fill="#505050"/>
<path d="M9.37466 1.62238C9.37466 1.3247 9.49291 1.03922 9.7034 0.828736C9.91388 0.61825 10.1994 0.5 10.497 0.5C10.7947 0.5 11.0802 0.61825 11.2907 0.828736C11.5012 1.03922 11.6194 1.3247 11.6194 1.62238V4.9895C11.6194 5.28717 11.5012 5.57265 11.2907 5.78314C11.0802 5.99363 10.7947 6.11188 10.497 6.11188C10.1994 6.11188 9.91388 5.99363 9.7034 5.78314C9.49291 5.57265 9.37466 5.28717 9.37466 4.9895V1.62238ZM13.8866 1.96358C13.9535 1.68038 14.1277 1.43421 14.3725 1.27699C14.6174 1.11977 14.9137 1.06379 15.1991 1.12085C15.4844 1.17792 15.7364 1.34357 15.902 1.58287C16.0675 1.82218 16.1337 2.11642 16.0865 2.40355L15.5253 5.20949C15.4584 5.49269 15.2842 5.73886 15.0393 5.89608C14.7945 6.0533 14.4981 6.10928 14.2128 6.05221C13.9275 5.99514 13.6755 5.82949 13.5099 5.59019C13.3443 5.35089 13.2782 5.05664 13.3254 4.76952L13.8866 1.96358ZM7.10746 1.96358C7.04061 1.68038 6.86638 1.43421 6.62153 1.27699C6.37667 1.11977 6.08033 1.06379 5.79499 1.12085C5.50966 1.17792 5.25764 1.34357 5.09209 1.58287C4.92653 1.82218 4.86039 2.11642 4.90761 2.40355L5.46879 5.20949C5.53564 5.49269 5.70987 5.73886 5.95473 5.89608C6.19958 6.0533 6.49593 6.10928 6.78126 6.05221C7.0666 5.99514 7.31862 5.82949 7.48417 5.59019C7.64972 5.35089 7.71586 5.05664 7.66865 4.76952L7.10746 1.96358ZM2.47991 3.29022C2.4064 3.15932 2.30737 3.0445 2.18869 2.95255C2.07001 2.8606 1.93409 2.79339 1.78898 2.75491C1.64386 2.71643 1.4925 2.70745 1.34385 2.72851C1.19521 2.74956 1.05229 2.80023 0.923576 2.8775C0.79486 2.95478 0.682954 3.05709 0.594484 3.17839C0.506014 3.29968 0.442778 3.4375 0.408519 3.58367C0.37426 3.72984 0.369675 3.8814 0.395034 4.02937C0.420393 4.17734 0.475182 4.31873 0.556157 4.44515L2.23972 7.25109C2.3142 7.38025 2.41366 7.49328 2.53231 7.58358C2.65096 7.67387 2.7864 7.73962 2.93074 7.77699C3.07508 7.81436 3.22542 7.82259 3.37298 7.80121C3.52053 7.77983 3.66235 7.72926 3.79015 7.65247C3.91795 7.57567 4.02916 7.47418 4.1173 7.35392C4.20544 7.23366 4.26874 7.09705 4.30349 6.95206C4.33824 6.80707 4.34376 6.65661 4.31972 6.50946C4.29568 6.36231 4.24256 6.22143 4.16347 6.09504L2.47991 3.29022ZM18.513 3.29022C18.6662 3.03482 18.9145 2.85072 19.2034 2.77842C19.4923 2.70612 19.7981 2.75154 20.0535 2.90469C20.3089 3.05784 20.493 3.30618 20.5653 3.59507C20.6376 3.88396 20.5922 4.18975 20.439 4.44515L18.7555 7.25109C18.6022 7.50649 18.3537 7.69053 18.0647 7.76273C17.7757 7.83493 17.4699 7.78936 17.2144 7.63606C16.959 7.48276 16.775 7.23428 16.7028 6.94528C16.6306 6.65628 16.6762 6.35044 16.8295 6.09504L18.513 3.29022Z" fill="#505050"/>
<path fill-rule="evenodd" clip-rule="evenodd" d="M10.4967 13.4074C11.5385 13.4074 12.5377 12.9935 13.2744 12.2568C14.0111 11.5201 14.425 10.5209 14.425 9.47909C14.425 8.43724 14.0111 7.43806 13.2744 6.70136C12.5377 5.96466 11.5385 5.55078 10.4967 5.55078C9.45482 5.55078 8.45564 5.96466 7.71894 6.70136C6.98223 7.43806 6.56836 8.43724 6.56836 9.47909C6.56836 10.5209 6.98223 11.5201 7.71894 12.2568C8.45564 12.9935 9.45482 13.4074 10.4967 13.4074ZM10.4967 7.79553C10.9432 7.79553 11.3714 7.97291 11.6871 8.28864C12.0029 8.60436 12.1802 9.03259 12.1802 9.47909C12.1802 9.9256 12.0029 10.3538 11.6871 10.6696C11.3714 10.9853 10.9432 11.1627 10.4967 11.1627C10.0502 11.1627 9.62194 10.9853 9.30621 10.6696C8.99048 10.3538 8.81311 9.9256 8.81311 9.47909C8.81311 9.03259 8.99048 8.60436 9.30621 8.28864C9.62194 7.97291 10.0502 7.79553 10.4967 7.79553Z" fill="#505050"/>
</svg>
