<svg width="28" height="28" viewBox="0 0 28 28" fill="none" xmlns="http://www.w3.org/2000/svg">
<path fill-rule="evenodd" clip-rule="evenodd" d="M14 0C6.26801 0 0 6.26801 0 14C0 21.732 6.26801 28 14 28C21.732 28 28 21.732 28 14C28 6.26801 21.732 0 14 0ZM9.1 9.1C9.1 6.3938 11.2938 4.2 14 4.2C16.7062 4.2 18.9 6.3938 18.9 9.1C18.9 11.8062 16.7062 14 14 14C11.2938 14 9.1 11.8062 9.1 9.1ZM4.58948 20.0755C6.89771 18.1885 10.2686 16.8 14.0001 16.8C17.7315 16.8 21.1024 18.1885 23.4106 20.0755C21.4156 23.1592 17.9461 25.2 14 25.2C10.0539 25.2 6.58445 23.1592 4.58948 20.0755Z" fill="#505050"/>
</svg>
