<svg width="28" height="25" viewBox="0 0 28 25" fill="none" xmlns="http://www.w3.org/2000/svg">
<path d="M17.7143 16.5715C18.3963 16.5715 19.0504 16.8424 19.5326 17.3247C20.0148 17.8069 20.2858 18.461 20.2858 19.143V20.8595L20.2766 20.983C19.9223 23.4138 17.7395 24.5818 14.0766 24.5818C10.4275 24.5818 8.2092 23.4275 7.73034 21.0252L7.71434 20.8572V19.143C7.71434 18.461 7.98526 17.8069 8.46749 17.3247C8.94973 16.8424 9.60378 16.5715 10.2858 16.5715H17.7143ZM17.7143 18.2858H10.2858C10.0584 18.2858 9.84042 18.3761 9.67968 18.5369C9.51893 18.6976 9.42862 18.9156 9.42862 19.143V20.7658C9.74862 22.1372 11.2001 22.8675 14.0766 22.8675C16.9521 22.8675 18.3395 22.1464 18.5715 20.7921V19.143C18.5715 18.9156 18.4812 18.6976 18.3204 18.5369C18.1597 18.3761 17.9417 18.2858 17.7143 18.2858ZM18.8503 9.71325L25.1429 9.71439C25.8249 9.71439 26.4789 9.98531 26.9612 10.4675C27.4434 10.9498 27.7143 11.6038 27.7143 12.2858V14.0024L27.7052 14.1258C27.3509 16.5567 25.1681 17.7247 21.5052 17.7247L21.1452 17.7212C20.8077 16.9077 20.1926 16.2403 19.4092 15.8378C19.9978 15.9521 20.6949 16.0104 21.5052 16.0104C24.3806 16.0104 25.7681 15.2892 26.0001 13.935V12.2858C26.0001 12.0585 25.9097 11.8405 25.749 11.6797C25.5883 11.519 25.3702 11.4287 25.1429 11.4287H19.1429C19.1429 10.8275 19.0401 10.2492 18.8503 9.71325ZM2.8572 9.71439L9.14977 9.71325C8.98839 10.1698 8.89258 10.6469 8.8652 11.1304L8.8572 11.4287H2.8572C2.62987 11.4287 2.41185 11.519 2.2511 11.6797C2.09036 11.8405 2.00005 12.0585 2.00005 12.2858V13.9087C2.32005 15.2801 3.77148 16.0104 6.64805 16.0104C7.35891 16.0104 7.97834 15.9658 8.5132 15.879C7.76515 16.2855 7.17905 16.9361 6.85262 17.7224L6.64691 17.7247C2.99891 17.7247 0.780624 16.5704 0.301767 14.1681L0.285767 14.0001V12.2858C0.285767 11.6038 0.556684 10.9498 1.03892 10.4675C1.52116 9.98531 2.17521 9.71439 2.8572 9.71439ZM14.0001 7.42868C15.0609 7.42868 16.0783 7.8501 16.8285 8.60025C17.5786 9.35039 18.0001 10.3678 18.0001 11.4287C18.0001 12.4895 17.5786 13.507 16.8285 14.2571C16.0783 15.0072 15.0609 15.4287 14.0001 15.4287C12.9392 15.4287 11.9218 15.0072 11.1716 14.2571C10.4215 13.507 10.0001 12.4895 10.0001 11.4287C10.0001 10.3678 10.4215 9.35039 11.1716 8.60025C11.9218 7.8501 12.9392 7.42868 14.0001 7.42868ZM14.0001 9.14296C13.3938 9.14296 12.8125 9.38378 12.3838 9.81243C11.9552 10.2411 11.7143 10.8225 11.7143 11.4287C11.7143 12.0349 11.9552 12.6163 12.3838 13.0449C12.8125 13.4736 13.3938 13.7144 14.0001 13.7144C14.6063 13.7144 15.1876 13.4736 15.6163 13.0449C16.045 12.6163 16.2858 12.0349 16.2858 11.4287C16.2858 10.8225 16.045 10.2411 15.6163 9.81243C15.1876 9.38378 14.6063 9.14296 14.0001 9.14296ZM21.4286 0.571533C22.4895 0.571533 23.5069 0.992961 24.2571 1.74311C25.0072 2.49325 25.4286 3.51067 25.4286 4.57153C25.4286 5.6324 25.0072 6.64981 24.2571 7.39996C23.5069 8.1501 22.4895 8.57153 21.4286 8.57153C20.3678 8.57153 19.3503 8.1501 18.6002 7.39996C17.8501 6.64981 17.4286 5.6324 17.4286 4.57153C17.4286 3.51067 17.8501 2.49325 18.6002 1.74311C19.3503 0.992961 20.3678 0.571533 21.4286 0.571533ZM6.57148 0.571533C7.63235 0.571533 8.64976 0.992961 9.39991 1.74311C10.1501 2.49325 10.5715 3.51067 10.5715 4.57153C10.5715 5.6324 10.1501 6.64981 9.39991 7.39996C8.64976 8.1501 7.63235 8.57153 6.57148 8.57153C5.51062 8.57153 4.4932 8.1501 3.74305 7.39996C2.99291 6.64981 2.57148 5.6324 2.57148 4.57153C2.57148 3.51067 2.99291 2.49325 3.74305 1.74311C4.4932 0.992961 5.51062 0.571533 6.57148 0.571533ZM21.4286 2.28582C20.8224 2.28582 20.241 2.52663 19.8124 2.95529C19.3837 3.38394 19.1429 3.96532 19.1429 4.57153C19.1429 5.17774 19.3837 5.75912 19.8124 6.18778C20.241 6.61643 20.8224 6.85725 21.4286 6.85725C22.0348 6.85725 22.6162 6.61643 23.0449 6.18778C23.4735 5.75912 23.7143 5.17774 23.7143 4.57153C23.7143 3.96532 23.4735 3.38394 23.0449 2.95529C22.6162 2.52663 22.0348 2.28582 21.4286 2.28582ZM6.57148 2.28582C5.96527 2.28582 5.38389 2.52663 4.95524 2.95529C4.52658 3.38394 4.28577 3.96532 4.28577 4.57153C4.28577 5.17774 4.52658 5.75912 4.95524 6.18778C5.38389 6.61643 5.96527 6.85725 6.57148 6.85725C7.17769 6.85725 7.75907 6.61643 8.18773 6.18778C8.61638 5.75912 8.8572 5.17774 8.8572 4.57153C8.8572 3.96532 8.61638 3.38394 8.18773 2.95529C7.75907 2.52663 7.17769 2.28582 6.57148 2.28582Z" fill="#505050"/>
</svg>
