<svg width="28" height="28" viewBox="0 0 28 28" fill="none" xmlns="http://www.w3.org/2000/svg">
<path d="M21.8889 25.6666H2.33332V6.11103H14.0844L15.8622 4.33325H2.33332C1.86182 4.33325 1.40964 4.52055 1.07624 4.85395C0.742843 5.18735 0.555542 5.63953 0.555542 6.11103V25.6666C0.555542 26.1381 0.742843 26.5903 1.07624 26.9237C1.40964 27.2571 1.86182 27.4444 2.33332 27.4444H21.8889C22.3604 27.4444 22.8126 27.2571 23.146 26.9237C23.4794 26.5903 23.6667 26.1381 23.6667 25.6666V12.3333L21.8889 14.111V25.6666Z" fill="#505050"/>
<path d="M26.8044 4.19101L23.8089 1.19545C23.6759 1.06215 23.518 0.95638 23.3441 0.884214C23.1702 0.812049 22.9838 0.774902 22.7955 0.774902C22.6073 0.774902 22.4209 0.812049 22.247 0.884214C22.0731 0.95638 21.9152 1.06215 21.7822 1.19545L9.59554 13.4532L8.60888 17.7288C8.56684 17.936 8.57126 18.15 8.62182 18.3554C8.67237 18.5607 8.76781 18.7523 8.90126 18.9163C9.0347 19.0804 9.20285 19.2128 9.3936 19.3041C9.58435 19.3954 9.79296 19.4433 10.0044 19.4443C10.1137 19.4564 10.224 19.4564 10.3333 19.4443L14.6444 18.4932L26.8044 6.21767C26.9377 6.08473 27.0435 5.92679 27.1157 5.75291C27.1878 5.57902 27.225 5.39261 27.225 5.20434C27.225 5.01607 27.1878 4.82966 27.1157 4.65577C27.0435 4.48189 26.9377 4.32395 26.8044 4.19101V4.19101ZM13.72 16.8488L10.4667 17.5688L11.2222 14.3421L20.3955 5.10656L22.9022 7.61323L13.72 16.8488ZM23.9067 6.60879L21.4 4.10212L22.7778 2.69767L25.3022 5.22212L23.9067 6.60879Z" fill="#505050"/>
</svg>
