<svg width="10" height="12" viewBox="0 0 20 22" fill="none" xmlns="http://www.w3.org/2000/svg">
<path d="M3.75 0C2.75544 0 1.80161 0.395088 1.09835 1.09835C0.395088 1.80161 0 2.75544 0 3.75V13.75C0 14.7446 0.395088 15.6984 1.09835 16.4017C1.80161 17.1049 2.75544 17.5 3.75 17.5H5V20C4.99995 20.2212 5.05859 20.4384 5.16992 20.6295C5.28125 20.8206 5.44128 20.9787 5.6337 21.0878C5.82611 21.1968 6.04401 21.2529 6.26516 21.2502C6.48631 21.2475 6.70279 21.1862 6.8925 21.0725L12.845 17.5H16.25C17.2446 17.5 18.1984 17.1049 18.9017 16.4017C19.6049 15.6984 20 14.7446 20 13.75V3.75C20 2.75544 19.6049 1.80161 18.9017 1.09835C18.1984 0.395088 17.2446 0 16.25 0H3.75Z" fill="current" />
</svg>
