<svg width="65" height="22" viewBox="0 0 65 22" fill="none" xmlns="http://www.w3.org/2000/svg">
<path d="M11.88 3V18.78C11.88 18.98 11.89 19.15 11.91 19.29C11.95 19.41 12.03 19.52 12.15 19.62C12.27 19.72 12.44 19.81 12.66 19.89C12.88 19.95 13.19 20.01 13.59 20.07C13.89 20.13 14.04 20.3 14.04 20.58C14.04 20.64 14.03 20.73 14.01 20.85C14.01 20.97 14 21.07 13.98 21.15C13.34 21.11 12.65 21.07 11.91 21.03C11.19 21.01 10.55 21 9.99 21C9.41 21 8.76 21.01 8.04 21.03C7.34 21.07 6.67 21.11 6.03 21.15C5.99 21.07 5.96 20.97 5.94 20.85C5.94 20.73 5.94 20.64 5.94 20.58C5.94 20.44 5.96 20.33 6 20.25C6.06 20.15 6.2 20.08 6.42 20.04C7.16 19.94 7.62 19.81 7.8 19.65C8 19.47 8.1 19.18 8.1 18.78V3H5.46C4.9 3 4.42 3.06 4.02 3.18C3.64 3.28 3.3 3.45 3 3.69C2.72 3.91 2.46 4.21 2.22 4.59C2 4.95 1.77 5.39 1.53 5.91C1.45 6.09 1.3 6.18 1.08 6.18C0.96 6.18 0.82 6.16 0.66 6.12C0.5 6.06 0.38 6.01 0.3 5.97C0.44 5.49 0.56 5.07 0.66 4.71C0.76 4.33 0.84 3.96 0.9 3.6C0.98 3.14 1.04 2.73 1.08 2.37C1.12 2.01 1.17 1.75 1.23 1.59C1.31 1.41 1.47 1.32 1.71 1.32C1.93 1.32 2.36 1.35 3 1.41C3.66 1.47 4.45 1.5 5.37 1.5H14.61C15.51 1.5 16.28 1.47 16.92 1.41C17.58 1.35 18.03 1.32 18.27 1.32C18.49 1.32 18.65 1.41 18.75 1.59C18.81 1.75 18.85 2.01 18.87 2.37C18.91 2.73 18.98 3.14 19.08 3.6C19.14 3.96 19.21 4.33 19.29 4.71C19.39 5.07 19.52 5.49 19.68 5.97C19.58 6.01 19.45 6.06 19.29 6.12C19.15 6.16 19.02 6.18 18.9 6.18C18.68 6.18 18.52 6.09 18.42 5.91C18.18 5.39 17.94 4.95 17.7 4.59C17.48 4.21 17.22 3.91 16.92 3.69C16.64 3.45 16.3 3.28 15.9 3.18C15.52 3.06 15.06 3 14.52 3H11.88ZM24.6305 21C23.8505 21 23.1805 21.01 22.6205 21.03C22.0605 21.07 21.5205 21.11 21.0005 21.15C20.9605 20.95 20.9405 20.76 20.9405 20.58C20.9405 20.44 20.9705 20.35 21.0305 20.31C21.1105 20.25 21.1905 20.21 21.2705 20.19C21.9105 20.07 22.3505 19.94 22.5905 19.8C22.8305 19.66 22.9505 19.44 22.9505 19.14V11.22C22.9505 10.62 22.8505 10.16 22.6505 9.84C22.4505 9.52 21.9805 9.33 21.2405 9.27C20.9805 9.23 20.8505 9.07 20.8505 8.79C20.8505 8.73 20.8505 8.66 20.8505 8.58C20.8505 8.48 20.8705 8.39 20.9105 8.31C21.0305 8.31 21.2005 8.31 21.4205 8.31C21.6605 8.29 21.9105 8.28 22.1705 8.28C22.4305 8.26 22.6905 8.24 22.9505 8.22C23.2105 8.2 23.4505 8.18 23.6705 8.16C24.1705 8.1 24.6505 8.02 25.1105 7.92C25.5705 7.82 25.8805 7.77 26.0405 7.77C26.3605 7.77 26.5205 7.92 26.5205 8.22C26.5205 8.44 26.4905 8.73 26.4305 9.09C26.3705 9.45 26.3405 9.95 26.3405 10.59V19.14C26.3405 19.44 26.4705 19.66 26.7305 19.8C26.9905 19.94 27.4205 20.07 28.0205 20.19C28.2405 20.23 28.3505 20.36 28.3505 20.58C28.3505 20.68 28.3505 20.78 28.3505 20.88C28.3505 20.98 28.3305 21.07 28.2905 21.15C27.7905 21.11 27.2505 21.07 26.6705 21.03C26.0905 21.01 25.4105 21 24.6305 21ZM22.4405 3.39C22.4405 2.75 22.6405 2.23 23.0405 1.83C23.4605 1.41 23.9805 1.2 24.6005 1.2C25.2405 1.2 25.7605 1.41 26.1605 1.83C26.5605 2.23 26.7605 2.75 26.7605 3.39C26.7605 4.03 26.5605 4.56 26.1605 4.98C25.7605 5.38 25.2405 5.58 24.6005 5.58C23.9805 5.58 23.4605 5.38 23.0405 4.98C22.6405 4.56 22.4405 4.03 22.4405 3.39ZM37.3432 21.15C36.8232 21.11 36.2232 21.07 35.5432 21.03C34.8832 21.01 34.2632 21 33.6832 21C33.0432 21 32.4032 21.01 31.7632 21.03C31.1432 21.07 30.5732 21.11 30.0532 21.15C30.0332 21.07 30.0132 20.99 29.9932 20.91C29.9932 20.81 29.9932 20.7 29.9932 20.58C29.9932 20.44 30.0232 20.35 30.0832 20.31C30.1632 20.25 30.2432 20.21 30.3232 20.19C30.9632 20.07 31.4032 19.94 31.6432 19.8C31.8832 19.66 32.0032 19.44 32.0032 19.14V3.42C32.0032 2.82 31.8932 2.37 31.6732 2.07C31.4532 1.75 30.9932 1.56 30.2932 1.5C30.0332 1.44 29.9032 1.28 29.9032 1.02C29.9032 0.959999 29.9032 0.879999 29.9032 0.779999C29.9032 0.679999 29.9232 0.599999 29.9632 0.539999C30.0832 0.539999 30.2532 0.539999 30.4732 0.539999C30.7132 0.519999 30.9632 0.509999 31.2232 0.509999C31.4832 0.489999 31.7432 0.469999 32.0032 0.449998C32.2632 0.429998 32.5032 0.409999 32.7232 0.389999C33.2232 0.329998 33.7032 0.249998 34.1632 0.149998C34.6232 0.0499985 34.9332 -1.43051e-06 35.0932 -1.43051e-06C35.4132 -1.43051e-06 35.5732 0.149998 35.5732 0.449998C35.5732 0.669999 35.5432 0.959999 35.4832 1.32C35.4232 1.66 35.3932 2.15 35.3932 2.79V19.14C35.3932 19.44 35.5132 19.66 35.7532 19.8C35.9932 19.94 36.4332 20.07 37.0732 20.19C37.2932 20.23 37.4032 20.36 37.4032 20.58C37.4032 20.86 37.3832 21.05 37.3432 21.15ZM50.4466 18.24C50.6266 18.1 50.7866 18.03 50.9266 18.03C51.0266 18.03 51.1366 18.08 51.2566 18.18C51.3966 18.26 51.5366 18.43 51.6766 18.69C50.8966 19.61 49.9966 20.29 48.9766 20.73C47.9766 21.15 46.7866 21.36 45.4066 21.36C44.6266 21.36 43.8566 21.24 43.0966 21C42.3566 20.74 41.6866 20.35 41.0866 19.83C40.4866 19.29 39.9966 18.62 39.6166 17.82C39.2566 17.02 39.0766 16.06 39.0766 14.94C39.0766 13.84 39.2866 12.85 39.7066 11.97C40.1466 11.07 40.6966 10.31 41.3566 9.69C42.0166 9.07 42.7366 8.6 43.5166 8.28C44.2966 7.94 45.0466 7.77 45.7666 7.77C47.7066 7.77 49.1666 8.33 50.1466 9.45C51.1466 10.57 51.6466 12.1 51.6466 14.04C51.6466 14.18 51.5766 14.25 51.4366 14.25L42.8266 14.61C42.8266 16.17 43.1766 17.37 43.8766 18.21C44.5766 19.03 45.6266 19.44 47.0266 19.44C47.6466 19.44 48.2566 19.34 48.8566 19.14C49.4566 18.94 49.9866 18.64 50.4466 18.24ZM45.3166 9.09C44.5366 9.09 43.9066 9.43 43.4266 10.11C42.9666 10.77 42.7366 11.82 42.7366 13.26L47.4166 13.05C47.7166 13.03 47.8666 12.9 47.8666 12.66C47.8666 12.28 47.8166 11.88 47.7166 11.46C47.6166 11.04 47.4566 10.66 47.2366 10.32C47.0366 9.96 46.7766 9.67 46.4566 9.45C46.1366 9.21 45.7566 9.09 45.3166 9.09ZM63.0586 7.8C63.6386 7.8 64.0686 7.95 64.3486 8.25C64.6486 8.55 64.7986 8.93 64.7986 9.39C64.7986 9.53 64.7686 9.65 64.7086 9.75C64.6686 9.85 64.5586 9.96 64.3786 10.08C64.2186 10.2 63.9886 10.34 63.6886 10.5C63.3886 10.64 62.9986 10.82 62.5186 11.04C62.1986 10.72 61.8986 10.51 61.6186 10.41C61.3586 10.29 61.0986 10.23 60.8386 10.23C60.5986 10.23 60.3586 10.27 60.1186 10.35C59.8986 10.43 59.6986 10.59 59.5186 10.83C59.3386 11.05 59.1886 11.35 59.0686 11.73C58.9686 12.11 58.9186 12.6 58.9186 13.2V18.78C58.9186 19.18 59.0786 19.48 59.3986 19.68C59.7186 19.86 60.3486 20.03 61.2886 20.19C61.5086 20.23 61.6186 20.36 61.6186 20.58C61.6186 20.86 61.5986 21.05 61.5586 21.15C61.2986 21.13 60.9786 21.11 60.5986 21.09C60.2186 21.09 59.8186 21.08 59.3986 21.06C58.9786 21.04 58.5586 21.02 58.1386 21C57.7386 21 57.3786 21 57.0586 21C56.2986 21 55.6486 21.01 55.1086 21.03C54.5686 21.07 54.0586 21.11 53.5786 21.15C53.5386 21.05 53.5186 20.86 53.5186 20.58C53.5186 20.36 53.6286 20.23 53.8486 20.19C54.4886 20.07 54.9286 19.94 55.1686 19.8C55.4086 19.66 55.5286 19.44 55.5286 19.14V11.07C55.5286 10.61 55.4386 10.24 55.2586 9.96C55.0986 9.68 54.6286 9.49 53.8486 9.39C53.5686 9.35 53.4286 9.2 53.4286 8.94C53.4286 8.88 53.4286 8.8 53.4286 8.7C53.4286 8.6 53.4486 8.52 53.4886 8.46C53.6086 8.46 53.7786 8.46 53.9986 8.46C54.2186 8.44 54.4586 8.43 54.7186 8.43C54.9786 8.41 55.2386 8.39 55.4986 8.37C55.7586 8.35 55.9886 8.32 56.1886 8.28C56.6286 8.22 57.0786 8.15 57.5386 8.07C58.0186 7.97 58.3386 7.92 58.4986 7.92C58.7786 7.92 58.9186 8.07 58.9186 8.37V9.99C59.6186 9.23 60.2886 8.68 60.9286 8.34C61.5686 7.98 62.2786 7.8 63.0586 7.8Z" fill="black"/>
</svg>
